<?xml version="1.0" standalone="no"?>
<!DOCTYPE svg PUBLIC "-//W3C//DTD SVG 20010904//EN"
 "http://www.w3.org/TR/2001/REC-SVG-20010904/DTD/svg10.dtd">
<svg version="1.0" xmlns="http://www.w3.org/2000/svg"
 width="200.000000pt" height="200.000000pt" viewBox="0 0 200.000000 200.000000"
 preserveAspectRatio="xMidYMid meet">

<g transform="translate(0.000000,200.000000) scale(0.100000,-0.100000)"
fill="#000000" stroke="none">
<path d="M0 1000 l0 -1000 1000 0 1000 0 0 1000 0 1000 -1000 0 -1000 0 0
-1000z m1235 780 c260 -82 466 -289 547 -550 20 -65 23 -96 23 -230 0 -134 -3
-165 -23 -230 -82 -264 -288 -470 -552 -552 -65 -20 -96 -23 -230 -23 -134 0
-165 3 -230 23 -264 82 -470 288 -552 552 -20 65 -23 96 -23 230 0 134 3 165
23 230 89 285 317 498 607 566 93 21 320 13 410 -16z"/>
<path d="M653 554 c-3 -8 -1 -20 6 -27 6 -6 11 -18 11 -26 -1 -14 -3 -13 -14
2 -15 20 -40 23 -34 5 7 -21 50 -39 65 -26 17 14 16 28 -4 50 -15 17 -15 18 0
18 10 0 17 -7 17 -15 0 -18 16 -20 26 -3 8 13 -22 38 -48 38 -10 0 -21 -7 -25
-16z"/>
<path d="M1345 530 c7 -34 -10 -42 -20 -10 -6 20 -25 28 -25 10 0 -5 9 -27 21
-50 18 -34 24 -38 40 -30 22 12 23 20 7 71 -13 46 -33 53 -23 9z m15 -50 c0
-5 -5 -10 -11 -10 -5 0 -7 5 -4 10 3 6 8 10 11 10 2 0 4 -4 4 -10z"/>
<path d="M1196 531 c-4 -7 -5 -15 -2 -18 9 -9 19 4 14 18 -4 11 -6 11 -12 0z"/>
<path d="M1235 520 c-8 -12 9 -62 22 -67 17 -7 51 23 39 34 -5 5 -11 2 -13 -4
-6 -17 -23 -16 -23 1 0 8 7 16 15 20 8 3 15 9 15 13 0 9 -50 11 -55 3z"/>
<path d="M790 480 c-19 -37 -20 -60 -2 -60 4 0 12 15 18 33 6 17 14 40 19 50
15 36 -15 16 -35 -23z"/>
<path d="M1144 510 c-12 -5 -24 -15 -27 -23 -8 -23 7 -72 24 -75 19 -3 56 24
46 34 -4 4 -13 2 -19 -4 -19 -19 -28 -14 -28 18 0 30 14 41 23 18 4 -10 7 -10
18 0 20 18 -8 43 -37 32z"/>
<path d="M708 484 c-10 -21 -9 -27 3 -35 22 -14 37 -11 53 13 11 16 13 25 4
35 -17 21 -47 15 -60 -13z m42 -3 c0 -12 -20 -25 -27 -18 -7 7 6 27 18 27 5 0
9 -4 9 -9z"/>
<path d="M1050 490 c0 -5 5 -10 10 -10 6 0 10 5 10 10 0 6 -4 10 -10 10 -5 0
-10 -4 -10 -10z"/>
<path d="M1208 494 c-12 -11 -10 -52 3 -60 6 -3 16 -1 22 5 8 8 8 11 0 11 -7
0 -13 12 -15 26 -2 14 -6 22 -10 18z"/>
<path d="M820 450 c-14 -26 -5 -40 25 -40 25 0 51 33 40 50 -11 18 -54 11 -65
-10z m31 -23 c-8 -8 -11 -7 -11 4 0 20 13 34 18 19 3 -7 -1 -17 -7 -23z"/>
<path d="M896 444 c-12 -30 -6 -44 17 -44 28 0 47 17 47 42 0 26 -18 22 -22
-4 -2 -13 -7 -21 -13 -18 -5 3 -8 13 -7 23 4 21 -14 23 -22 1z"/>
<path d="M983 453 c-18 -7 -16 -52 3 -60 9 -3 23 2 32 12 16 16 16 17 -4 11
-15 -4 -21 -2 -21 9 0 10 6 13 19 9 12 -3 18 0 18 10 0 16 -22 20 -47 9z"/>
<path d="M1046 438 c-9 -34 -8 -38 12 -38 15 0 18 6 14 30 -5 36 -17 39 -26 8z"/>
</g>
</svg>
